# xmcd
#
# Track frame offsets:
#	150
#	12844
#	31743
#	45354
#	54863
#	65765
#	75513
#	90388
#	101613
#	112781
#	125953
#	139823
#	151410
#	165470
#	178930
#	191283
#
# Disc length: 2676 seconds
#
# Revision: 3
# Processed by: cddbd v1.5.2PL0 Copyright (c) Steve Scherf et al.
# Submitted via: audiograbber 1.83.01
#
DISCID=c00a7210
DTITLE=Various Artist - Country mania [CD 1)
DYEAR=2012
DGENRE=Country
TTITLE0=Johnny Cash - I walk the line
TTITLE1=Kenny Rogers - The king of Oak street
TTITLE2=Pettie Page - Tennesee waltz
TTITLE3=Willie Nelson - One step beyond
TTITLE4=Don Gibson - Oh lonesome me
TTITLE5=Dave Dudley - Six days on the road
TTITLE6=Kenny Rogers and The First Edition - After all (I live my life)
TTITLE7=Dolly Parton - It wasn't god who made honky tonk angels
TTITLE8=Loretta Lynn - You're looking at country
TTITLE9=Johnny Cash - Wanted man
TTITLE10=Willie Nelson - Home is where you're happy
TTITLE11=Tom T. Hall - Ravishing ruby
TTITLE12=Willie Nelson - No tomorrow in sight
TTITLE13=Tex Williams - Smoke, smoke, smoke
TTITLE14=Lee Hazlewood - These boots are made for walking
TTITLE15=Webb Price - In the jailhouse now
EXTD=
EXTT0=
EXTT1=
EXTT2=
EXTT3=
EXTT4=
EXTT5=
EXTT6=
EXTT7=
EXTT8=
EXTT9=
EXTT10=
EXTT11=
EXTT12=
EXTT13=
EXTT14=
EXTT15=
PLAYORDER=
